HIERARCHY
ROOT Hips
{
	OFFSET 0.00 0.00 0.00
	CHANNELS 6 Xposition Yposition Zposition Xrotation Yrotation Zrotation
	JOINT Spine
	{
		OFFSET 0.00000 0.84964 1.27446
		CHANNELS 3 Xrotation Yrotation Zrotation
		JOINT Spine1
		{
			OFFSET 0.00000 0.29508 1.67346
			CHANNELS 3 Xrotation Yrotation Zrotation
			JOINT Spine2
			{
				OFFSET 0.00000 0.14810 1.69281
				CHANNELS 3 Xrotation Yrotation Zrotation
				JOINT Spine3
				{
					OFFSET 0.00000 0.00000 1.69928
					CHANNELS 3 Xrotation Yrotation Zrotation
					JOINT Neck
					{
						OFFSET 0.00000 -0.63723 4.46061
						CHANNELS 3 Xrotation Yrotation Zrotation
						JOINT Head
						{
							OFFSET 0.00000 -0.40573 2.30101
							CHANNELS 3 Xrotation Yrotation Zrotation
							End Site
							{
								OFFSET 0.00000 0.00000 2.75071
							}
						}
					}
					JOINT RightShoulder
					{
						OFFSET -0.72014 -1.20022 3.88874
						CHANNELS 3 Xrotation Yrotation Zrotation
						JOINT RightArm
						{
							OFFSET -3.57668 0.00000 0.00000
							CHANNELS 3 Xrotation Yrotation Zrotation
							JOINT RightForeArm
							{
								OFFSET -5.92485 0.00000 0.00000
								CHANNELS 3 Xrotation Yrotation Zrotation
								JOINT RightHand
								{
									OFFSET -6.63013 0.00000 0.00000
									CHANNELS 3 Xrotation Yrotation Zrotation
									JOINT RightHandEnd
									{
										OFFSET -1.65321 0.00000 0.00000
										CHANNELS 3 Xrotation Yrotation Zrotation
										End Site
										{
											OFFSET -1.65321 0.00000 0.00000
										}
									}
									JOINT RightHandThumb1
									{
										OFFSET -0.66129 -1.10214 -0.44086
										CHANNELS 3 Yrotation Xrotation Zrotation
										End Site
										{
											OFFSET -1.59688 -0.42788 0.00000
										}
									}
								}
							}
						}
					}
					JOINT LeftShoulder
					{
						OFFSET 0.72014 -1.20022 3.88874
						CHANNELS 3 Xrotation Yrotation Zrotation
						JOINT LeftArm
						{
							OFFSET 3.57668 0.00000 0.00000
							CHANNELS 3 Xrotation Yrotation Zrotation
							JOINT LeftForeArm
							{
								OFFSET 5.92485 0.00000 0.00000
								CHANNELS 3 Xrotation Yrotation Zrotation
								JOINT LeftHand
								{
									OFFSET 6.63013 0.00000 0.00000
									CHANNELS 3 Xrotation Yrotation Zrotation
									JOINT LeftHandEnd
									{
										OFFSET 1.65321 0.00000 0.00000
										CHANNELS 3 Xrotation Yrotation Zrotation
										End Site
										{
											OFFSET 1.65321 0.00000 0.00000
										}
									}
									JOINT LeftHandThumb1
									{
										OFFSET 0.66129 -1.10214 -0.44086
										CHANNELS 3 Yrotation Xrotation Zrotation
										End Site
										{
											OFFSET 1.59688 -0.42788 0.00000
										}
									}
								}
							}
						}
					}
				}
			}
		}
	}
	JOINT RightUpLeg
	{
		OFFSET -2.13640 0.00000 -0.62412
		CHANNELS 3 Xrotation Yrotation Zrotation
		JOINT RightLeg
		{
			OFFSET 0.00000 0.00000 -11.49360
			CHANNELS 3 Xrotation Yrotation Zrotation
			JOINT RightFoot
			{
				OFFSET 0.00000 0.00000 -8.79036
				CHANNELS 3 Xrotation Yrotation Zrotation
				JOINT RightToeBase
				{
					OFFSET 0.00000 -3.94625 -1.43632
					CHANNELS 3 Xrotation Yrotation Zrotation
					End Site
					{
						OFFSET 0.00000 -1.72833 -0.00000
					}
				}
			}
		}
	}
	JOINT LeftUpLeg
	{
		OFFSET 2.13640 0.00000 -0.62412
		CHANNELS 3 Xrotation Yrotation Zrotation
		JOINT LeftLeg
		{
			OFFSET 0.00000 0.00000 -11.49360
			CHANNELS 3 Xrotation Yrotation Zrotation
			JOINT LeftFoot
			{
				OFFSET 0.00000 0.00000 -8.79036
				CHANNELS 3 Xrotation Yrotation Zrotation
				JOINT LeftToeBase
				{
					OFFSET 0.00000 -3.94625 -1.43632
					CHANNELS 3 Xrotation Yrotation Zrotation
					End Site
					{
						OFFSET 0.00000 -1.72833 -0.00000
					}
				}
			}
		}
	}
}
MOTION
Frames: 15
Frame Time: 0.008342
 13.3448 -30.3039 23.1413 -2.8996 -4.0658 165.0437 0.7578 -7.1528 1.3034 -0.6982 -2.0343 0.1326 6.3628 1.7598 10.4236 0.6793 7.3175 -0.6342 -11.5186 8.6578 -3.6315 -12.2886 0.6967 -24.2417 13.3367 -11.9256 5.3406 39.9057 -38.7321 31.5145 -0.0000 0.0001 79.5157 -8.0653 6.0639 18.1982 0.0000 -0.0000 -0.0000 -0.0000 -0.0000 -0.0000 -8.8351 15.0091 -0.1808 -57.3903 58.2345 52.8204 -0.0000 -0.0001 -80.1674 -35.6839 -10.9739 13.1784 -0.0000 -0.0000 -0.0000 -0.0000 0.0000 -0.0000 -0.5775 -7.2565 -52.7019 4.3316 0.0000 0.0000 -22.8961 7.8423 55.5507 -7.3123 0.0000 -0.0000 -10.5774 -15.9633 31.9868 33.5684 0.0000 0.0000 -16.1400 -3.8873 18.8247 0.6263 0.0000 0.0000
 13.3452 -30.3108 23.1411 -2.8797 -4.0870 165.0942 0.7330 -7.1487 1.2990 -0.6993 -2.0286 0.1248 6.3948 1.7186 10.3854 0.6942 7.2753 -0.6266 -11.5120 8.6738 -3.5846 -12.2576 0.6890 -24.1303 13.3458 -11.8505 5.3055 39.7499 -38.7611 31.2842 -0.0000 0.0001 79.4806 -8.2136 5.9286 18.1976 -0.0000 0.0000 -0.0000 0.0000 0.0000 0.0000 -8.7391 15.0335 -0.1882 -57.1183 58.3808 52.7432 -0.0000 -0.0001 -80.0989 -35.7075 -11.0680 13.2245 -0.0000 0.0000 0.0000 0.0000 0.0000 0.0000 -0.5796 -7.2723 -52.6861 4.3513 0.0000 0.0000 -22.8897 7.8807 55.4928 -7.3159 0.0000 -0.0000 -10.5915 -15.9262 32.1343 33.5326 0.0000 0.0000 -16.1751 -3.9782 18.8685 0.6203 0.0000 0.0000
 13.3451 -30.3196 23.1405 -2.8589 -4.1197 165.1771 0.7020 -7.1529 1.2883 -0.7073 -2.0149 0.1261 6.4335 1.6542 10.3155 0.7138 7.2215 -0.6191 -11.5004 8.6989 -3.5157 -12.2157 0.6810 -23.9750 13.3565 -11.7407 5.2568 39.5384 -38.8308 30.9769 -0.0000 0.0001 79.4416 -8.4150 5.7123 18.1873 -0.0000 0.0000 -0.0000 -0.0000 -0.0000 0.0000 -8.6086 15.0539 -0.2022 -56.7686 58.5797 52.6448 -0.0000 -0.0001 -79.9944 -35.7361 -11.2111 13.2739 0.0000 0.0000 0.0000 -0.0000 -0.0000 -0.0000 -0.5854 -7.2979 -52.6943 4.3732 0.0000 0.0000 -22.8812 7.9242 55.4271 -7.3221 0.0000 -0.0000 -10.6009 -15.8736 32.2412 33.4576 0.0000 0.0000 -16.2694 -4.0285 18.8309 0.6114 0.0000 0.0000
 13.3442 -30.3300 23.1395 -2.8144 -4.1763 165.3005 0.6919 -7.1693 1.2722 -0.7174 -2.0012 0.1226 6.4703 1.5738 10.2233 0.7359 7.1566 -0.6147 -11.4815 8.7317 -3.4246 -12.1619 0.6731 -23.7709 13.3742 -11.5940 5.1943 39.2670 -38.9473 30.5953 -0.0000 0.0001 79.4013 -8.6686 5.4195 18.1679 -0.0000 0.0000 0.0000 0.0000 -0.0000 -0.0000 -8.4513 15.0636 -0.2222 -56.3420 58.8316 52.5283 -0.0000 -0.0001 -79.8480 -35.7619 -11.3926 13.3304 -0.0000 0.0000 -0.0000 0.0000 -0.0000 0.0000 -0.5666 -7.3411 -52.7363 4.3905 0.0000 0.0000 -22.8644 7.9686 55.3562 -7.3327 0.0000 -0.0000 -10.5755 -15.8088 32.2784 33.3364 0.0000 0.0000 -16.4387 -4.0212 18.6787 0.6002 0.0000 0.0000
 13.3416 -30.3423 23.1384 -2.7862 -4.2238 165.4551 0.6523 -7.1808 1.2568 -0.7288 -1.9897 0.1129 6.5121 1.4817 10.1053 0.7608 7.0834 -0.6082 -11.4586 8.7764 -3.3109 -12.1038 0.6619 -23.5183 13.3931 -11.4278 5.1180 38.9268 -39.1041 30.1231 -0.0000 0.0001 79.3661 -8.9629 5.0565 18.1353 0.0000 -0.0000 -0.0000 -0.0000 -0.0000 -0.0000 -8.2737 15.0783 -0.2508 -55.8108 59.1224 52.3550 -0.0000 -0.0001 -79.6566 -35.7816 -11.5993 13.3927 -0.0000 0.0000 -0.0000 0.0000 -0.0000 -0.0000 -0.5785 -7.3710 -52.7978 4.4235 0.0000 0.0000 -22.8568 8.0206 55.2730 -7.3438 0.0000 -0.0000 -10.5506 -15.7021 32.2290 33.1443 0.0000 0.0000 -16.6775 -3.9471 18.3931 0.5874 0.0000 0.0000
 13.3374 -30.3559 23.1372 -2.7568 -4.2762 165.6443 0.6095 -7.1969 1.2352 -0.7432 -1.9780 0.1037 6.5558 1.3757 9.9647 0.7858 7.0058 -0.6036 -11.4312 8.8269 -3.1766 -12.0406 0.6546 -23.2169 13.4195 -11.2438 5.0291 38.5177 -39.3035 29.5703 -0.0000 0.0001 79.3370 -9.2839 4.6487 18.0969 -0.0000 -0.0000 0.0000 -0.0000 0.0000 0.0000 -8.0819 15.0924 -0.2880 -55.1837 59.4478 52.1235 -0.0000 -0.0001 -79.4145 -35.7835 -11.8087 13.4626 -0.0000 0.0000 0.0000 0.0000 -0.0000 -0.0000 -0.5934 -7.4023 -52.8961 4.4544 0.0000 0.0000 -22.8467 8.0720 55.1911 -7.3575 0.0000 -0.0000 -10.5019 -15.5656 32.0740 32.8824 0.0000 0.0000 -16.9906 -3.7957 17.9496 0.5736 0.0000 0.0000
 13.3313 -30.3710 23.1360 -2.7453 -4.3285 165.8622 0.5490 -7.2184 1.2109 -0.7612 -1.9716 0.0912 6.5981 1.2653 9.8078 0.8111 6.9248 -0.6035 -11.4019 8.8841 -3.0211 -11.9761 0.6473 -22.8700 13.4501 -11.0592 4.9324 38.0389 -39.5347 28.9304 -0.0000 0.0001 79.3234 -9.6118 4.2233 18.0485 0.0000 -0.0000 0.0000 0.0000 0.0000 -0.0000 -7.8814 15.1134 -0.3306 -54.4451 59.7968 51.8004 -0.0000 -0.0001 -79.1217 -35.7615 -12.0057 13.5413 0.0000 -0.0000 -0.0000 0.0000 -0.0000 0.0000 -0.6332 -7.4333 -53.0157 4.4858 0.0000 0.0000 -22.8318 8.1271 55.1001 -7.3740 0.0000 -0.0000 -10.4480 -15.4022 31.7998 32.5517 0.0000 0.0000 -17.3692 -3.5648 17.3441 0.5588 0.0000 0.0000
 13.3229 -30.3865 23.1352 -2.7263 -4.3647 166.1004 0.4941 -7.2259 1.1863 -0.7818 -1.9688 0.0777 6.6414 1.1505 9.6359 0.8334 6.8450 -0.6030 -11.3731 8.9471 -2.8497 -11.9133 0.6403 -22.4804 13.4836 -10.8860 4.8266 37.4932 -39.7871 28.2117 -0.0000 0.0001 79.3241 -9.9241 3.8078 18.0039 0.0000 0.0000 -0.0000 -0.0000 0.0000 -0.0000 -7.6828 15.1460 -0.3787 -53.5917 60.1564 51.3705 -0.0000 -0.0001 -78.7762 -35.7058 -12.1598 13.6280 -0.0000 -0.0000 -0.0000 0.0000 0.0000 0.0000 -0.6726 -7.4401 -53.1690 4.5171 0.0000 0.0000 -22.8203 8.1765 55.0217 -7.3908 0.0000 -0.0000 -10.3525 -15.1882 31.4123 32.1319 0.0000 0.0000 -17.7860 -3.2585 16.5854 0.5426 0.0000 0.0000
 13.3124 -30.4022 23.1351 -2.6939 -4.3901 166.3533 0.4575 -7.2214 1.1616 -0.8044 -1.9743 0.0605 6.6811 1.0395 9.4593 0.8508 6.7653 -0.6042 -11.3459 9.0137 -2.6632 -11.8532 0.6349 -22.0541 13.5240 -10.7330 4.7176 36.8811 -40.0541 27.4196 -0.0000 0.0001 79.3431 -10.1969 3.4332 17.9651 0.0000 -0.0000 -0.0000 0.0000 0.0000 0.0000 -7.4970 15.1944 -0.4311 -52.6120 60.5129 50.8156 -0.0000 -0.0001 -78.3822 -35.6120 -12.2544 13.7240 -0.0000 -0.0000 -0.0000 0.0000 -0.0000 0.0000 -0.7007 -7.4302 -53.3454 4.5378 0.0000 0.0000 -22.8013 8.2204 54.9516 -7.4091 0.0000 -0.0000 -10.2101 -14.9360 30.9144 31.6336 0.0000 0.0000 -18.2212 -2.8862 15.6934 0.5243 0.0000 0.0000
 13.2992 -30.4185 23.1358 -2.6881 -4.3836 166.6071 0.3955 -7.2027 1.1377 -0.8279 -1.9750 0.0434 6.7216 0.9261 9.2847 0.8652 6.6932 -0.6081 -11.3261 9.0806 -2.4653 -11.8010 0.6317 -21.5963 13.5515 -10.6190 4.6006 36.2265 -40.3137 26.5673 -0.0000 0.0001 79.3758 -10.4108 3.1347 17.9452 -0.0000 0.0000 -0.0000 0.0000 -0.0000 -0.0000 -7.3277 15.2672 -0.4872 -51.4974 60.8517 50.1113 -0.0000 -0.0001 -77.9434 -35.4760 -12.2736 13.8259 0.0000 0.0000 0.0000 0.0000 -0.0000 -0.0000 -0.7672 -7.3868 -53.5247 4.5626 0.0000 0.0000 -22.7847 8.2664 54.8810 -7.4268 0.0000 -0.0000 -10.0689 -14.6385 30.3152 31.0636 0.0000 0.0000 -18.6431 -2.4689 14.7107 0.5026 0.0000 0.0000
 13.2837 -30.4352 23.1374 -2.7147 -4.3455 166.8551 0.3033 -7.1625 1.1146 -0.8522 -1.9862 0.0292 6.7658 0.8246 9.1074 0.8722 6.6235 -0.6087 -11.3143 9.1491 -2.2598 -11.7585 0.6267 -21.1112 13.5868 -10.5518 4.4861 35.5098 -40.5579 25.6561 -0.0000 0.0001 79.4238 -10.5465 2.9270 17.9444 0.0000 -0.0000 0.0000 0.0000 0.0000 0.0000 -7.1831 15.3703 -0.5427 -50.2386 61.1606 49.2434 -0.0000 -0.0001 -77.4644 -35.2972 -12.2033 13.9348 -0.0000 0.0000 -0.0000 0.0000 0.0000 0.0000 -0.8727 -7.3171 -53.7061 4.5765 0.0000 0.0000 -22.7598 8.3119 54.8160 -7.4455 0.0000 -0.0000 -9.9413 -14.3066 29.6347 30.4391 0.0000 0.0000 -19.0268 -2.0322 13.6778 0.4782 0.0000 0.0000
 13.2663 -30.4514 23.1405 -2.7071 -4.2829 167.0905 0.2593 -7.0961 1.0984 -0.8791 -1.9983 0.0130 6.8046 0.7316 8.9432 0.8718 6.5570 -0.6094 -11.3111 9.2139 -2.0483 -11.7214 0.6251 -20.6045 13.6131 -10.5260 4.3679 34.7662 -40.7826 24.7173 -0.0000 0.0001 79.4783 -10.5930 2.8270 17.9697 0.0000 0.0000 -0.0000 0.0000 -0.0000 -0.0000 -7.0639 15.4946 -0.5992 -48.8574 61.4378 48.2324 -0.0000 -0.0001 -76.9482 -35.0791 -12.0425 14.0367 0.0000 -0.0000 0.0000 0.0000 -0.0000 -0.0000 -0.9441 -7.2136 -53.8765 4.5764 0.0000 0.0000 -22.7239 8.3531 54.7548 -7.4655 0.0000 -0.0000 -9.7560 -13.9382 28.9139 29.7651 0.0000 0.0000 -19.3476 -1.6023 12.6370 0.4517 0.0000 0.0000
 13.2467 -30.4682 23.1447 -2.7412 -4.1817 167.3071 0.1762 -7.0068 1.0838 -0.9032 -2.0105 0.0001 6.8460 0.6472 8.7871 0.8654 6.4932 -0.6088 -11.3199 9.2781 -1.8317 -11.6946 0.6207 -20.0808 13.6329 -10.5495 4.2535 33.9901 -40.9798 23.7502 -0.0000 0.0001 79.5353 -10.5440 2.8332 18.0179 -0.0000 0.0000 -0.0000 -0.0000 0.0000 0.0000 -6.9753 15.6511 -0.6555 -47.3479 61.6679 47.0724 -0.0000 -0.0001 -76.4031 -34.8283 -11.7921 14.1323 -0.0000 0.0000 -0.0000 0.0000 -0.0000 -0.0000 -1.0654 -7.0783 -54.0366 4.5680 0.0000 0.0000 -22.6802 8.3955 54.6999 -7.4866 0.0000 -0.0000 -9.6135 -13.5434 28.1673 29.0751 0.0000 0.0000 -19.5906 -1.2133 11.6434 0.4250 0.0000 0.0000
 13.2253 -30.4849 23.1503 -2.7618 -4.0515 167.5011 0.1187 -6.8911 1.0762 -0.9271 -2.0209 -0.0132 6.8835 0.5721 8.6458 0.8528 6.4301 -0.6065 -11.3397 9.3370 -1.6114 -11.6732 0.6191 -19.5441 13.6406 -10.6098 4.1394 33.2009 -41.1543 22.7800 -0.0000 0.0001 79.5856 -10.4008 2.9331 18.0841 -0.0000 -0.0000 -0.0000 0.0000 0.0000 0.0000 -6.9120 15.8276 -0.7111 -45.7443 61.8582 45.7956 -0.0000 -0.0001 -75.8270 -34.5540 -11.4595 14.2022 0.0000 -0.0000 0.0000 -0.0000 -0.0000 -0.0000 -1.1757 -6.9096 -54.1737 4.5486 0.0000 0.0000 -22.6252 8.4372 54.6463 -7.5096 0.0000 -0.0000 -9.4581 -13.1252 27.4442 28.3815 0.0000 0.0000 -19.7464 -0.8895 10.7283 0.4016 0.0000 0.0000
 13.2023 -30.5021 23.1571 -2.7926 -3.8955 167.6742 0.0600 -6.7558 1.0702 -0.9489 -2.0277 -0.0232 6.9194 0.5035 8.5153 0.8346 6.3658 -0.6016 -11.3698 9.3936 -1.3896 -11.6577 0.6149 -18.9961 13.6402 -10.6976 4.0275 32.3994 -41.3112 21.8194 -0.0000 0.0001 79.6216 -10.1708 3.1046 18.1581 0.0000 0.0000 0.0000 -0.0000 0.0000 0.0000 -6.8708 16.0202 -0.7679 -44.0754 62.0087 44.4323 -0.0000 -0.0001 -75.2232 -34.2668 -11.0598 14.2394 -0.0000 -0.0000 -0.0000 0.0000 -0.0000 -0.0000 -1.2990 -6.7178 -54.2953 4.5157 0.0000 0.0000 -22.5567 8.4785 54.5982 -7.5361 0.0000 -0.0000 -9.3307 -12.6985 26.7709 27.7164 0.0000 0.0000 -19.8174 -0.6508 9.9203 0.3850 0.0000 0.0000
